{"context": "\n\n\u306f\u3058\u3081\u306b\n\u203b\u8a18\u4e8b\u306e\u60c5\u5831\u3092\u300cOpenCV for Unity 2.0.9\u300d\u306b\u5bfe\u5fdc\u3057\u305f\u5185\u5bb9(WebGL\u3067\u306e\u518d\u751f\u30c6\u30b9\u30c8\u7d50\u679c)\u306b\u66f4\u65b0\u3057\u307e\u3057\u305f\u3002\nUnity\u3067\u306f\u52d5\u753b\u30d5\u30a1\u30a4\u30eb\u3092\u518d\u751f\u3059\u308b\u6a5f\u80fd\u3068\u3057\u3066\u300cMovieTexture\u300d\u304c\u7528\u610f\u3055\u308c\u3066\u3044\u307e\u3059\u3002\n\u52d5\u753b\u30d5\u30a1\u30a4\u30eb\u3092\u901a\u5e38\u306eTexture\u3068\u540c\u3058\u3088\u3046\u306b\u6271\u3048\u308b\u3088\u3046\u306b\u306a\u308b\u305f\u3081\u3001\u6620\u50cf\u3092\u30e2\u30c7\u30eb\u306b\u8cbc\u308a\u4ed8\u3051\u3066\u753b\u9762\u5185\u306b\u914d\u7f6e\u3059\u308b\u3053\u3068\u304c\u53ef\u80fd\u306b\u306a\u308a\u307e\u3059\u3002\n\u3057\u304b\u3057\u3001\u3053\u306e\u6a5f\u80fd\u306f\u30c7\u30b9\u30af\u30c8\u30c3\u30d7\u74b0\u5883\u3057\u304b\u30b5\u30dd\u30fc\u30c8\u3057\u3066\u304a\u3089\u305a\u3001\u30e2\u30d0\u30a4\u30eb\u74b0\u5883\u3067\u306f\u4f7f\u7528\u3067\u304d\u307e\u305b\u3093\u3002\niPhone/Android\u306e\u3088\u3046\u306a\u30e2\u30d0\u30a4\u30eb\u74b0\u5883\u3067\u3082\u52d5\u753b\u518d\u751f\u304c\u53ef\u80fd\u306a\u3001\u300cHandheld.PlayFullScreenMovie\u300d\u3068\u3044\u3046\u6a5f\u80fd\u3082\u5b58\u5728\u3057\u307e\u3059\u304c\u3001\u5168\u753b\u9762\u518d\u751f\u3057\u304b\u3067\u304d\u306a\u3044\u306e\u3067\u4f7f\u3044\u52dd\u624b\u304c\u975e\u5e38\u306b\u60aa\u3044\u3067\u3059\u3002(\u4e00\u65e6\u3001\u753b\u9762\u304c\u5207\u308a\u66ff\u308f\u3063\u3066\u52d5\u753b\u304c\u30d5\u30eb\u30b9\u30af\u30ea\u30fc\u30f3\u518d\u751f\u3055\u308c\u308b\u65b9\u5f0f\u3002Unity\u5074\u306e\u51e6\u7406\u304c\u4e2d\u65ad\u3055\u308c\u308b\u305f\u3081\u3001\u30a8\u30f3\u30c7\u30a3\u30f3\u30b0\u30e0\u30fc\u30d3\u30fc\u306e\u518d\u751f\u306a\u3069\u306e\u7528\u9014\u306b\u3057\u304b\u4f7f\u3044\u3069\u3053\u308d\u304c\u7121\u3044)\n\u306a\u3093\u3068\u304b\u30e2\u30d0\u30a4\u30eb\u74b0\u5883\u3067\u3082\u540c\u3058\u3088\u3046\u306b\u52d5\u753b\u3092\u30c6\u30af\u30b9\u30c1\u30e3\u3068\u3057\u3066\u4f7f\u7528\u3067\u304d\u306a\u3044\u304b\u3068\u8abf\u3079\u305f\u3053\u3068\u308d\u3001OpenCV\u3092\u4f7f\u3063\u3066\u52d5\u753b\u30d5\u30a1\u30a4\u30eb\u518d\u751f\u304c\u51fa\u6765\u308b\u3053\u3068\u3092\u77e5\u308a\u307e\u3057\u305f\u3002\n\u4eca\u56de\u306e\u8a18\u4e8b\u3067\u306f\u300cOpenCV for Unity\u300d\u3092\u4f7f\u7528\u3057\u3066\u52d5\u753b\u518d\u751f\u3092\u3057\u3066\u307f\u305f\u3044\u3068\u601d\u3044\u307e\u3059\u3002\n\u203b\u300cOpenCV for Unity\u300d\u306e\u57fa\u672c\u7684\u306a\u4f7f\u3044\u65b9\u3068\u30bb\u30c3\u30c8\u30a2\u30c3\u30d7\u65b9\u6cd5\u306f\u3053\u3061\u3089\u306e\u8a18\u4e8b\u3092\u30c1\u30a7\u30c3\u30af\u3057\u3066\u304f\u3060\u3055\u3044\u3002\n\nUnity\u3067OpenCV\u3092\u5229\u7528\u3057\u305f\u9854\u691c\u51fa\u30fb\u753b\u50cf\u51e6\u7406\u30a2\u30d7\u30ea\u4e8b\u59cb\u3081\nUnity\u3067OpenCV\u3092\u5229\u7528\u3057\u305f\u9854\u691c\u51fa\u30fb\u753b\u50cf\u51e6\u7406\u30a2\u30d7\u30ea\u4e8b\u59cb\u30812 \u30b5\u30f3\u30d7\u30eb\u30b3\u30fc\u30c9\u8a73\u89e3\n\n\nOpneCV\u306e\u52d5\u753b\u518d\u751fAPI\u300cVideoCapture\u300d\u3068\u306f\n\u300cVideoCapture\u300d\u306f\u30d3\u30c7\u30aa\u30d5\u30a1\u30a4\u30eb\u3084\u30ab\u30e1\u30e9\u304b\u3089\u30ad\u30e3\u30d7\u30c1\u30e3\u3092\u884c\u3046\u305f\u3081\u306e\u30af\u30e9\u30b9\u3067\u3059\u3002\n\u518d\u751f\u53ef\u80fd\u306a\u52d5\u753b\u30d5\u30a1\u30a4\u30eb\u306e\u5f62\u5f0f\u3067\u3059\u304c\u3001OpenCV3.0 rc\u304b\u3089\u306f\u300cmotion jpeg video\u300d(MJPEG)\u306e\u518d\u751f\u6a5f\u80fd\u304c\u8ffd\u52a0\u3055\u308c\u305f\u3088\u3046\u3067\u3059\u3002\n\n3.0 rc\nApril, 2015\nThese are changes since 3.0 beta\nStandalone motion jpeg codec has been added to opencv_videoio. It does not need ffmpeg or any other 3rd-party lib. According to our measurements, it's also much faster than ffmpeg, especially on ARM. For the decoder you should have JPEG support enabled (through built-in or external libjpeg). How to use it? To encode motion jpeg video, use .avi file extension and CV_FOURCC('M', 'J', 'P', 'G'). The decoder part has been verified on such streams (avi files with index, where each frame is encoded using baseline jpeg) and few random motion jpeg clips from net, but we have not tested it thoroughly.\nOpenCV Change Logs\u3088\u308a\u5f15\u7528\n\n\u4e0a\u8a18\u306e\u8aac\u660e\u304b\u3089MJPEG\u5f62\u5f0f\u3067\u3042\u308c\u3070\u30b5\u30fc\u30c9\u30d1\u30fc\u30c6\u30a3\u30fc\u88fd\u306e\u30e9\u30a4\u30d6\u30e9\u30ea\u3092\u5fc5\u8981\u3068\u3057\u306a\u3044\u306e\u3067\u74b0\u5883\u306b\u5de6\u53f3\u3055\u308c\u305a\u306b\u518d\u751f\u304c\u53ef\u80fd\u3060\u3068\u89e3\u91c8\u3057\u307e\u3057\u305f\u3002(\u3082\u3061\u308d\u3093\u5f93\u6765\u901a\u308affmpeg\u306a\u3069\u306e\u30e9\u30a4\u30d6\u30e9\u30ea\u304c\u30ea\u30f3\u30af\u3055\u308c\u3066\u308b\u74b0\u5883\u3067\u3042\u308c\u3070\u3001\u5bfe\u5fdc\u3057\u3066\u3044\u308b\u591a\u69d8\u306a\u5f62\u5f0f\u306e\u52d5\u753b\u30d5\u30a1\u30a4\u30eb\u3092\u518d\u751f\u53ef\u80fd)\n\u3068\u308a\u3042\u3048\u305a\u3001\u30de\u30eb\u30c1\u30d7\u30e9\u30c3\u30c8\u30d5\u30a9\u30fc\u30e0\u306b\u5bfe\u5fdc\u3057\u3066\u3044\u308b\u3068\u601d\u308f\u308c\u308bMJPEG\u5f62\u5f0f\u306e\u52d5\u753b\u30d5\u30a1\u30a4\u30eb\u3092\u8ef8\u306b\u3057\u3066\u518d\u751f\u3067\u304d\u308b\u304b\u8a66\u3057\u3066\u307f\u307e\u3059\u3002\n\nMJPG\u5f62\u5f0f\u306e\u52d5\u753b\u30d5\u30a1\u30a4\u30eb\u306e\u4f5c\u6210\nOpenCV\u306b\u30b5\u30f3\u30d7\u30eb\u3068\u3057\u3066\u540c\u68b1\u3055\u308c\u3066\u3044\u308b\u52d5\u753b\u30d5\u30a1\u30a4\u30eb\u300c768x576.avi\u300d\u3092ffmpeg\u3092\u4f7f\u7528\u3057\u3066MJPEG\u5f62\u5f0f\u306b\u5909\u63db\u3057\u307e\u3059\u3002\nffmpeg -i 768x576.avi -r 10 -s 768x576 -vcodec mjpeg -an 768x576_mjpeg.avi\n\n(\u30b5\u30a4\u30ba\u3001\u30d5\u30ec\u30fc\u30e0\u30ec\u30fc\u30c8\u306f\u5909\u66f4\u305b\u305a\u3001\u30b3\u30fc\u30c7\u30c3\u30af\u5f62\u5f0f\u3060\u3051\u5909\u63db\u3057\u307e\u3057\u305f)\nffmpeg -i [filename]\u3067\u60c5\u5831\u3092\u898b\u3066\u307f\u305f\u3089\u3053\u3093\u306a\u611f\u3058\nInput #0, avi, from '768x576_mjpeg.avi':\n  Metadata:\n    encoder         : Lavf56.34.100\n  Duration: 00:01:19.50, start: 0.000000, bitrate: 1564 kb/s\n    Stream #0:0: Video: mjpeg (MJPG / 0x47504A4D), yuvj420p(pc, bt470bg/unknown/unknown), 768x576, 1563 kb/s, 10 fps, 10 tbr, 10 tbn, 10 tbc\n\n\n\u518d\u751f\u30c6\u30b9\u30c8\u7528\u306e\u30b3\u30fc\u30c9\n\nusing UnityEngine;\nusing System.Collections;\nusing OpenCVForUnity;\nusing System;\n\n    /// <summary>\n    /// VideoCapture sample.\n    /// </summary>\n    public class VideoCaptureFileNameSample : MonoBehaviour\n    {\n        //\u74b0\u5883\u3084\u5f62\u5f0f\u306b\u3088\u3063\u3066\u306f\u52d5\u753b\u306e\u60c5\u5831\u304c\u6b63\u3057\u304f\u53d6\u5f97\u3067\u304d\u306a\u3044\u3053\u3068\u304c\u3042\u308b\u306e\u3067\u3001\u76f4\u63a5\u6307\u5b9a\u3059\u308b\n        private int fps = 10;\n        private double frameWidth = 768;\n        private double frameHeight = 576;\n\n        private VideoCapture capture;\n        private Mat rgbaMat;\n        private Texture2D texture;\n\n        private bool didUpdateThisFrame = false;\n        private bool isThreadRunning = false;\n        private ThreadComm threadComm = new ThreadComm();\n\n\n\n#if UNITY_PRO_LICENSE || ((UNITY_ANDROID || UNITY_IOS) && !UNITY_EDITOR) || !(UNITY_4_5 || UNITY_4_6)\n\n        // Use this for initialization\n        void Start()\n        {\n\n            rgbaMat = new Mat();\n\n            capture = new VideoCapture();\n\n            //capture.open(Utils.getFilePath(\"768x576.avi\"));\n#if UNITY_IPHONE && !UNITY_EDITOR\n            capture.open(Utils.getFilePath(\"768x576_h264.mov\"));\n#else\n            capture.open(Utils.getFilePath(\"768x576_mjpeg.avi\"));\n#endif\n\n            if (capture.isOpened())\n            {\n                Debug.Log(\"capture.isOpened(): true\");\n            }\n            else\n            {\n                Debug.Log(\"capture.isOpened(): false\");\n                return;\n            }\n\n            //\u52d5\u753b\u30d5\u30a1\u30a4\u30eb\u306e\u60c5\u5831\u3092\u8868\u793a\n            Debug.Log(\"format: \" + capture.get(8));\n            Debug.Log(\"preview format: \" + capture.get(Videoio.CV_CAP_PROP_PREVIEW_FORMAT));\n            Debug.Log(\"CAP_PROP_POS_MSEC: \" + capture.get(Videoio.CAP_PROP_POS_MSEC));\n            Debug.Log(\"CAP_PROP_POS_FRAMES: \" + capture.get(Videoio.CAP_PROP_POS_FRAMES));\n            Debug.Log(\"CAP_PROP_POS_AVI_RATIO: \" + capture.get(Videoio.CAP_PROP_POS_AVI_RATIO));\n            Debug.Log(\"CAP_PROP_FRAME_COUNT: \" + capture.get(Videoio.CAP_PROP_FRAME_COUNT));\n            Debug.Log(\"CAP_PROP_FPS: \" + capture.get(Videoio.CAP_PROP_FPS));\n            Debug.Log(\"CAP_PROP_FRAME_WIDTH: \" + capture.get(Videoio.CAP_PROP_FRAME_WIDTH));\n            Debug.Log(\"CAP_PROP_FRAME_HEIGHT: \" + capture.get(Videoio.CAP_PROP_FRAME_HEIGHT));\n            double ex = capture.get(Videoio.CAP_PROP_FOURCC);\n            //char EXT[] = {ex & 0XFF , (ex & 0XFF00) >> 8,(ex & 0XFF0000) >> 16,(ex & 0XFF000000) >> 24, 0};\n            Debug.Log(\"CAP_PROP_FOURCC: \" + (char)((int)ex & 0XFF) + (char)(((int)ex & 0XFF00) >> 8) + (char)(((int)ex & 0XFF0000) >> 16) + (char)(((int)ex & 0XFF000000) >> 24));\n\n\n            //\u52d5\u753b\u304c\u753b\u9762\u3044\u3063\u3071\u3044\u306b\u8868\u793a\u3055\u308c\u308b\u3088\u3046\u306b\u8abf\u6574\n            texture = new Texture2D((int)(frameWidth), (int)(frameHeight), TextureFormat.RGBA32, false);\n            gameObject.GetComponent<Renderer>().material.mainTexture = texture;\n\n#if (UNITY_ANDROID || UNITY_IPHONE || UNITY_WP_8_1) && !UNITY_EDITOR\n            gameObject.transform.eulerAngles = new Vector3 (0, 0, -90);\n#endif\n\n            gameObject.transform.localScale = new Vector3((float)frameWidth, (float)frameHeight, 1);\n\n\n#if (UNITY_ANDROID || UNITY_IPHONE || UNITY_WP_8_1) && !UNITY_EDITOR\n            Camera.main.orthographicSize = (float)frameWidth / 2;\n#else\n            Camera.main.orthographicSize = (float)frameHeight / 2;\n#endif\n\n            //\u52d5\u753b\u518d\u751f\u958b\u59cb\n            StartThread();\n\n        }\n\n        // Update is called once per frame\n        void Update()\n        {\n            if (!didUpdateThisFrame) return;\n\n            if (rgbaMat.total() > 0)\n                 Utils.matToTexture2D(rgbaMat, texture);\n\n\n            didUpdateThisFrame = false;\n        }\n\n\n        void OnDestroy()\n        {\n\n            StopThread();\n\n            capture.release();\n\n        }\n\n\n\n        private void ThreadWorker()\n        {\n            if (isThreadRunning) return;\n\n            isThreadRunning = true;\n\n            threadComm.fps = fps;\n            threadComm.frameCount = (int)capture.get(Videoio.CAP_PROP_FRAME_COUNT);\n\n            StartCoroutine(\"CaptureCoroutine\", threadComm);\n        }\n\n\n        IEnumerator CaptureCoroutine(System.Object o)\n        {\n            ThreadComm comm = o as ThreadComm;\n\n            int msec = (int)(1000f / comm.fps);\n\n            System.Diagnostics.Stopwatch stopWatch;\n\n            while (true)\n            {\n\n                stopWatch = System.Diagnostics.Stopwatch.StartNew();\n\n                if (capture.grab())\n                {\n                    //Loop play\n                    if (capture.get(Videoio.CAP_PROP_POS_FRAMES) == comm.frameCount)\n                        capture.set(Videoio.CAP_PROP_POS_FRAMES, 0);\n\n                    capture.retrieve(rgbaMat, 0);\n                    Imgproc.cvtColor(rgbaMat, rgbaMat, Imgproc.COLOR_BGR2RGB);\n\n                    didUpdateThisFrame = true;\n                }\n                else\n                {\n                    break;\n                }\n\n                stopWatch.Stop();\n\n                //FPS\u304b\u3089\u8a08\u7b97\u3057\u305fWait\u3092\u52a0\u3048\u308b\n                if (msec > (int)stopWatch.ElapsedMilliseconds)\n                    yield return new WaitForSeconds((msec - stopWatch.ElapsedMilliseconds) / 1000f);\n            }\n        }\n\n\n        public class ThreadComm : System.Object\n        {\n            public int fps;\n            public int frameCount;\n        }\n\n\n        public void StartThread()\n        {\n            if (fps <= 0) return;\n\n            ThreadWorker();\n        }\n\n        public void StopThread()\n        {\n            if (!isThreadRunning) return;\n\n\n\n            StopCoroutine(\"CaptureCoroutine\");\n            isThreadRunning = false;\n\n        }\n\n#endif\n}\n\n\n\u5f53\u305f\u308a\u524d\u3067\u3059\u304c\u3001\u300cOpenCV for Unity\u300d\u306eAsset\u306e\u5c0e\u5165\u304c\u5fc5\u8981\u3067\u3059\u3002\n\u52d5\u753b\u30d5\u30a1\u30a4\u30eb\u306f\u300cAssets/StreamingAssets\u300d\u30d5\u30a9\u30eb\u30c0\u306b\u5165\u308c\u3066\u304f\u3060\u3055\u3044\u3002\n\u3068\u308a\u3042\u3048\u305a\u52d5\u753b\u304c\u518d\u751f\u3067\u304d\u308c\u3070\u826f\u3044\u3068\u3044\u3046\u65b9\u91dd\u3067\u3001\u30b3\u30eb\u30fc\u30c1\u30f3\u3067FPS\u306b\u5fdc\u3058\u305f\u30a6\u30a7\u30a4\u30c8\u3092\u52a0\u3048\u306a\u304c\u3089\u30d5\u30ec\u30fc\u30e0\u3092\u66f4\u65b0\u3057\u3066\u3044\u307e\u3059\u3002\n\u4e00\u6642\u505c\u6b62\u3084\u30b7\u30fc\u30af\u6a5f\u80fd\u306f\u307e\u3060\u3042\u308a\u307e\u305b\u3093\u3002\u3068\u308a\u3042\u3048\u305a\u30eb\u30fc\u30d7\u518d\u751f\u3055\u305b\u3066\u3044\u307e\u3059\u3002\n\n\u5404\u30d7\u30e9\u30c3\u30c8\u30d5\u30a9\u30fc\u30e0\u3067\u518d\u751f\u30c6\u30b9\u30c8\u3092\u3057\u3066\u307f\u305f\u7d50\u679c\n\u4ee5\u4e0b\u306e3\u7a2e\u985e\u306e\u52d5\u753b\u30d5\u30a1\u30a4\u30eb\u304c\u518d\u751f\u3067\u304d\u308b\u304b\u30c6\u30b9\u30c8\u3057\u307e\u3057\u305f\u3002\nA. 768x576.avi (\u30b3\u30fc\u30c7\u30c3\u30af:div3 / \u30b3\u30f3\u30c6\u30ca:avi)\u203bOpenCV\u306b\u540c\u68b1\u3055\u308c\u3066\u3044\u308b\u5143\u30d5\u30a1\u30a4\u30eb\nB. 768x576_mjpeg.avi (\u30b3\u30fc\u30c7\u30c3\u30af:mjpeg / \u30b3\u30f3\u30c6\u30ca:avi)\nC. 768x576_h264.mov (\u30b3\u30fc\u30c7\u30c3\u30af:h264 / \u30b3\u30f3\u30c6\u30ca:mov)1 \n\n\n\n\u30d7\u30e9\u30c3\u30c8\u30d5\u30a9\u30fc\u30e0\nA.768x576.avi(div3/avi)\nB.768x576_mjpeg.avi(mjpeg/avi)\nC.768x576_h264.mov(h264/mov)\n\n\n\n\nWindows\n\u25cb \u203b1\n\u25cb\n\u25cb \u203b1\n\n\nMac\n\u00d7\n\u25cb\n\u25cb \u203b2\n\n\nAndroid\n\u00d7\n\u25cb\n\u00d7\n\n\niPhone\n\u00d7\n\u25cb \u203b3\n\u25cb\n\n\nWindowsStoreApp\n\u00d7\n\u25cb\n\u00d7\n\n\nWebGL\n\u00d7\n\u25cb\n\u00d7\n\n\n\n\u203b1 Windows\u7248OpenCV\u306b\u540c\u68b1\u3055\u308c\u3066\u3044\u308b\u300copencv_ffmpeg300_[64].dll\u300d\u306b\u30d1\u30b9\u304c\u901a\u3063\u3066\u3044\u308b\u5834\u5408\u306e\u307f\u518d\u751f\u53ef\u80fd\n\u203b2 \u7279\u306b\u4f55\u3082\u3057\u3066\u3044\u306a\u3044\u3051\u3069\u518d\u751f\u3067\u304d\u305f\uff08Mac\u306b\u306f\u5143\u3005QuickTime\u304c\u5165\u3063\u3066\u3044\u308b\u305f\u3081\u304b?\uff09\n\u203b3 iPhone\u3067\u306f\u306a\u305c\u304bMJPEG\u5f62\u5f0f\u304c\u518d\u751f\u3067\u304d\u306a\u3044\u3002(\u300cOpenCV for Unity 1.1.6\u300d\u306eReadMe\u306e\u30d0\u30fc\u30b8\u30e7\u30f3\u5c65\u6b74\u3067iPhone\u306elibjpg,libpng\u306e\u30d0\u30fc\u30b8\u30e7\u30f3\u30b3\u30f3\u30af\u30ea\u30d5\u30c8\u554f\u984c(\u3053\u306e\u8a18\u4e8b\u3068\u540c\u3058\u554f\u984c\u307d\u3044)\u306b\u3064\u3044\u3066\u8a00\u53ca\u3055\u308c\u3066\u3044\u308b\u306e\u3067\u3001\u305d\u306e\u95a2\u4fc2\u3067jpeg\u306e\u30a8\u30f3\u30b3\u30fc\u30c9\u304c\u51fa\u6765\u306a\u3044\u306e\u3067\u306f\uff1f\u3068\u63a8\u6e2c)\u3000\u4ee3\u308f\u308a\u306biPhone\u5411\u3051\u306b\u5909\u63db\u3057\u305f\u52d5\u753b\u5f62\u5f0f\u306a\u3089\u518d\u751f\u3067\u304d\u305f\u3002\n\u203b3 \u30d0\u30fc\u30b8\u30e7\u30f31.2.7\u3067\u30b3\u30f3\u30af\u30ea\u30d5\u30c8\u554f\u984c\u304c\u4fee\u6b63\u3055\u308c\u305f\u305f\u3081\u3001\u518d\u751f\u53ef\u80fd\u306b\u306a\u308a\u307e\u3057\u305f\uff01\nMJPEG\u5f62\u5f0f\u3067\u3060\u3044\u305f\u3044\u30a4\u30b1\u308b\uff01\uff01\uff08\u753b\u8cea\u304c\u52a3\u5316\u3057\u3066\u30d5\u30a1\u30a4\u30eb\u30b5\u30a4\u30ba\u304c\u5927\u304d\u3081\u3060\u3051\u3069\u2026\u2026\uff09\n\n\u307e\u3068\u3081\niPhone\u3060\u3051\u306f\u52d5\u753b\u5f62\u5f0f\u3092\u5909\u66f4\u3059\u308b\u5fc5\u8981\u304c\u3042\u308a\u307e\u3057\u305f\u304c\u3001Unity\u3067OpenCV\u3092\u4f7f\u3063\u3066\u30c7\u30b9\u30af\u30c8\u30c3\u30d7\u3068\u30e2\u30d0\u30a4\u30eb\u74b0\u5883\u3067\u52d5\u753b\u3092\u518d\u751f\u3059\u308b\u3053\u3068\u306b\u6210\u529f\u3057\u307e\u3057\u305f\u3002\n\u6b21\u56de\u306e\u8a18\u4e8b\u3067\u306f\u52d5\u753b\u518d\u751f\u3092\u5229\u7528\u3057\u3066\u3001\u30b9\u30de\u30dbVR\u30a2\u30d7\u30ea(\u30cf\u30b3\u30b9\u30b3\u7684\u306a)\u306e\u4f5c\u6210\u306b\u6311\u6226\u3057\u3066\u307f\u305f\u3044\u3068\u601d\u3044\u307e\u3059\u3002\n\n\u95a2\u9023\u8a18\u4e8b\nUnity\u3067OpenCV\u3092\u5229\u7528\u3057\u305f\u9854\u691c\u51fa\u30fb\u753b\u50cf\u51e6\u7406\u30a2\u30d7\u30ea\u4e8b\u59cb\u3081\nUnity\u3067OpenCV\u3092\u5229\u7528\u3057\u305f\u9854\u691c\u51fa\u30fb\u753b\u50cf\u51e6\u7406\u30a2\u30d7\u30ea\u4e8b\u59cb\u30812 \u30b5\u30f3\u30d7\u30eb\u30b3\u30fc\u30c9\u8a73\u89e3\n\u300cOpenCV for Unity\u300dAsset\u306e\u30a4\u30f3\u30dd\u30fc\u30c8\u30b5\u30a4\u30ba\u3092\u524a\u6e1b\u3059\u308b\u65b9\u6cd5\nUnity\u3067OpneCV\u3092\u5229\u7528\u3057\u305f\u52d5\u753b\u518d\u751f\u3092\u3057\u3066\u307f\u305f\nUnity\u3067OpneCV\u3092\u5229\u7528\u3057\u305f\u30cf\u30b3\u30b9\u30b3VR\u4f53\u9a13\n\n\n\n\nffmpeg\u3092\u4f7f\u7528\u3057\u3066\u300cffmpeg -i 768x576.avi -r 10 -s 768x576 -vcodec h264 -an 768x576_h264.mov\u300d\u3067\u5909\u63db\u3057\u305f\u3082\u306e(iPhone\u3067\u518d\u751f\u53ef\u80fd\u306a\u52d5\u753b\u5f62\u5f0f)\u00a0\u21a9\n\n\n\n#\u306f\u3058\u3081\u306b\n\n**\u203b\u8a18\u4e8b\u306e\u60c5\u5831\u3092\u300cOpenCV for Unity 2.0.9\u300d\u306b\u5bfe\u5fdc\u3057\u305f\u5185\u5bb9(WebGL\u3067\u306e\u518d\u751f\u30c6\u30b9\u30c8\u7d50\u679c)\u306b\u66f4\u65b0\u3057\u307e\u3057\u305f\u3002**\n\n**Unity\u3067\u306f\u52d5\u753b\u30d5\u30a1\u30a4\u30eb\u3092\u518d\u751f\u3059\u308b\u6a5f\u80fd\u3068\u3057\u3066\u300c[MovieTexture](http://docs.unity3d.com/ja/current/Manual/class-MovieTexture.html)\u300d\u304c\u7528\u610f\u3055\u308c\u3066\u3044\u307e\u3059\u3002**\n\u52d5\u753b\u30d5\u30a1\u30a4\u30eb\u3092\u901a\u5e38\u306eTexture\u3068\u540c\u3058\u3088\u3046\u306b\u6271\u3048\u308b\u3088\u3046\u306b\u306a\u308b\u305f\u3081\u3001\u6620\u50cf\u3092\u30e2\u30c7\u30eb\u306b\u8cbc\u308a\u4ed8\u3051\u3066\u753b\u9762\u5185\u306b\u914d\u7f6e\u3059\u308b\u3053\u3068\u304c\u53ef\u80fd\u306b\u306a\u308a\u307e\u3059\u3002\n**\u3057\u304b\u3057\u3001\u3053\u306e\u6a5f\u80fd\u306f\u30c7\u30b9\u30af\u30c8\u30c3\u30d7\u74b0\u5883\u3057\u304b\u30b5\u30dd\u30fc\u30c8\u3057\u3066\u304a\u3089\u305a\u3001\u30e2\u30d0\u30a4\u30eb\u74b0\u5883\u3067\u306f\u4f7f\u7528\u3067\u304d\u307e\u305b\u3093\u3002**\niPhone/Android\u306e\u3088\u3046\u306a\u30e2\u30d0\u30a4\u30eb\u74b0\u5883\u3067\u3082\u52d5\u753b\u518d\u751f\u304c\u53ef\u80fd\u306a\u3001\u300c[Handheld.PlayFullScreenMovie](http://docs.unity3d.com/ja/current/ScriptReference/Handheld.PlayFullScreenMovie.html)\u300d\u3068\u3044\u3046\u6a5f\u80fd\u3082\u5b58\u5728\u3057\u307e\u3059\u304c\u3001\u5168\u753b\u9762\u518d\u751f\u3057\u304b\u3067\u304d\u306a\u3044\u306e\u3067\u4f7f\u3044\u52dd\u624b\u304c\u975e\u5e38\u306b\u60aa\u3044\u3067\u3059\u3002(\u4e00\u65e6\u3001\u753b\u9762\u304c\u5207\u308a\u66ff\u308f\u3063\u3066\u52d5\u753b\u304c\u30d5\u30eb\u30b9\u30af\u30ea\u30fc\u30f3\u518d\u751f\u3055\u308c\u308b\u65b9\u5f0f\u3002Unity\u5074\u306e\u51e6\u7406\u304c\u4e2d\u65ad\u3055\u308c\u308b\u305f\u3081\u3001\u30a8\u30f3\u30c7\u30a3\u30f3\u30b0\u30e0\u30fc\u30d3\u30fc\u306e\u518d\u751f\u306a\u3069\u306e\u7528\u9014\u306b\u3057\u304b\u4f7f\u3044\u3069\u3053\u308d\u304c\u7121\u3044)\n\n\u306a\u3093\u3068\u304b\u30e2\u30d0\u30a4\u30eb\u74b0\u5883\u3067\u3082\u540c\u3058\u3088\u3046\u306b\u52d5\u753b\u3092\u30c6\u30af\u30b9\u30c1\u30e3\u3068\u3057\u3066\u4f7f\u7528\u3067\u304d\u306a\u3044\u304b\u3068\u8abf\u3079\u305f\u3053\u3068\u308d\u3001**OpenCV\u3092\u4f7f\u3063\u3066\u52d5\u753b\u30d5\u30a1\u30a4\u30eb\u518d\u751f\u304c\u51fa\u6765\u308b\u3053\u3068\u3092\u77e5\u308a\u307e\u3057\u305f\u3002**\n\n**\u4eca\u56de\u306e\u8a18\u4e8b\u3067\u306f\u300c[OpenCV for Unity](https://www.assetstore.unity3d.com/jp/#!/content/21088)\u300d\u3092\u4f7f\u7528\u3057\u3066\u52d5\u753b\u518d\u751f\u3092\u3057\u3066\u307f\u305f\u3044\u3068\u601d\u3044\u307e\u3059\u3002**\n\n\u203b\u300cOpenCV for Unity\u300d\u306e\u57fa\u672c\u7684\u306a\u4f7f\u3044\u65b9\u3068\u30bb\u30c3\u30c8\u30a2\u30c3\u30d7\u65b9\u6cd5\u306f\u3053\u3061\u3089\u306e\u8a18\u4e8b\u3092\u30c1\u30a7\u30c3\u30af\u3057\u3066\u304f\u3060\u3055\u3044\u3002\n\n\n- [Unity\u3067OpenCV\u3092\u5229\u7528\u3057\u305f\u9854\u691c\u51fa\u30fb\u753b\u50cf\u51e6\u7406\u30a2\u30d7\u30ea\u4e8b\u59cb\u3081](http://qiita.com/utibenkei/items/fb93623a7ccaabb342f2)\n- [Unity\u3067OpenCV\u3092\u5229\u7528\u3057\u305f\u9854\u691c\u51fa\u30fb\u753b\u50cf\u51e6\u7406\u30a2\u30d7\u30ea\u4e8b\u59cb\u30812 \u30b5\u30f3\u30d7\u30eb\u30b3\u30fc\u30c9\u8a73\u89e3](http://qiita.com/utibenkei/items/290e83d2c50cdadbcb2d)\n\n\n##OpneCV\u306e\u52d5\u753b\u518d\u751fAPI\u300cVideoCapture\u300d\u3068\u306f\n\n**\u300c[VideoCapture](http://enoxsoftware.github.io/OpenCVForUnity/doc/html/class_open_c_v_for_unity_1_1_video_capture.html)\u300d\u306f\u30d3\u30c7\u30aa\u30d5\u30a1\u30a4\u30eb\u3084\u30ab\u30e1\u30e9\u304b\u3089\u30ad\u30e3\u30d7\u30c1\u30e3\u3092\u884c\u3046\u305f\u3081\u306e\u30af\u30e9\u30b9\u3067\u3059\u3002**\n\n\u518d\u751f\u53ef\u80fd\u306a\u52d5\u753b\u30d5\u30a1\u30a4\u30eb\u306e\u5f62\u5f0f\u3067\u3059\u304c\u3001**OpenCV3.0 rc\u304b\u3089\u306f\u300cmotion jpeg video\u300d(MJPEG)\u306e\u518d\u751f\u6a5f\u80fd\u304c\u8ffd\u52a0\u3055\u308c\u305f**\u3088\u3046\u3067\u3059\u3002\n\n> 3.0 rc\nApril, 2015\nThese are changes since 3.0 beta\nStandalone motion jpeg codec has been added to opencv_videoio. It does not need ffmpeg or any other 3rd-party lib. According to our measurements, it's also much faster than ffmpeg, especially on ARM. For the decoder you should have JPEG support enabled (through built-in or external libjpeg). How to use it? To encode motion jpeg video, use .avi file extension and CV_FOURCC('M', 'J', 'P', 'G'). The decoder part has been verified on such streams (avi files with index, where each frame is encoded using baseline jpeg) and few random motion jpeg clips from net, but we have not tested it thoroughly.\n[OpenCV Change Logs](http://code.opencv.org/projects/opencv/wiki/Changelog)\u3088\u308a\u5f15\u7528\n\n\u4e0a\u8a18\u306e\u8aac\u660e\u304b\u3089MJPEG\u5f62\u5f0f\u3067\u3042\u308c\u3070\u30b5\u30fc\u30c9\u30d1\u30fc\u30c6\u30a3\u30fc\u88fd\u306e\u30e9\u30a4\u30d6\u30e9\u30ea\u3092\u5fc5\u8981\u3068\u3057\u306a\u3044\u306e\u3067\u74b0\u5883\u306b\u5de6\u53f3\u3055\u308c\u305a\u306b\u518d\u751f\u304c\u53ef\u80fd\u3060\u3068\u89e3\u91c8\u3057\u307e\u3057\u305f\u3002(\u3082\u3061\u308d\u3093\u5f93\u6765\u901a\u308affmpeg\u306a\u3069\u306e\u30e9\u30a4\u30d6\u30e9\u30ea\u304c\u30ea\u30f3\u30af\u3055\u308c\u3066\u308b\u74b0\u5883\u3067\u3042\u308c\u3070\u3001\u5bfe\u5fdc\u3057\u3066\u3044\u308b\u591a\u69d8\u306a\u5f62\u5f0f\u306e\u52d5\u753b\u30d5\u30a1\u30a4\u30eb\u3092\u518d\u751f\u53ef\u80fd)\n\n**\u3068\u308a\u3042\u3048\u305a\u3001\u30de\u30eb\u30c1\u30d7\u30e9\u30c3\u30c8\u30d5\u30a9\u30fc\u30e0\u306b\u5bfe\u5fdc\u3057\u3066\u3044\u308b\u3068\u601d\u308f\u308c\u308bMJPEG\u5f62\u5f0f\u306e\u52d5\u753b\u30d5\u30a1\u30a4\u30eb\u3092\u8ef8\u306b\u3057\u3066\u518d\u751f\u3067\u304d\u308b\u304b\u8a66\u3057\u3066\u307f\u307e\u3059\u3002**\n\n\n##MJPG\u5f62\u5f0f\u306e\u52d5\u753b\u30d5\u30a1\u30a4\u30eb\u306e\u4f5c\u6210\n\nOpenCV\u306b\u30b5\u30f3\u30d7\u30eb\u3068\u3057\u3066\u540c\u68b1\u3055\u308c\u3066\u3044\u308b\u52d5\u753b\u30d5\u30a1\u30a4\u30eb\u300c768x576.avi\u300d\u3092[ffmpeg](http://blog.k-tai-douga.com/)\u3092\u4f7f\u7528\u3057\u3066MJPEG\u5f62\u5f0f\u306b\u5909\u63db\u3057\u307e\u3059\u3002\n\n```\nffmpeg -i 768x576.avi -r 10 -s 768x576 -vcodec mjpeg -an 768x576_mjpeg.avi\n```\n\n(\u30b5\u30a4\u30ba\u3001\u30d5\u30ec\u30fc\u30e0\u30ec\u30fc\u30c8\u306f\u5909\u66f4\u305b\u305a\u3001\u30b3\u30fc\u30c7\u30c3\u30af\u5f62\u5f0f\u3060\u3051\u5909\u63db\u3057\u307e\u3057\u305f)\n\n`ffmpeg -i [filename]`\u3067\u60c5\u5831\u3092\u898b\u3066\u307f\u305f\u3089\u3053\u3093\u306a\u611f\u3058\n\n```\nInput #0, avi, from '768x576_mjpeg.avi':\n  Metadata:\n    encoder         : Lavf56.34.100\n  Duration: 00:01:19.50, start: 0.000000, bitrate: 1564 kb/s\n    Stream #0:0: Video: mjpeg (MJPG / 0x47504A4D), yuvj420p(pc, bt470bg/unknown/unknown), 768x576, 1563 kb/s, 10 fps, 10 tbr, 10 tbn, 10 tbc\n```\n\n\n\n##\u518d\u751f\u30c6\u30b9\u30c8\u7528\u306e\u30b3\u30fc\u30c9\n\n![QiitaOpenCV2_movie.jpg](https://qiita-image-store.s3.amazonaws.com/0/28558/ba9f33bd-485a-a70d-9736-e106dcdd92b4.jpeg)\n\n\n```\nusing UnityEngine;\nusing System.Collections;\nusing OpenCVForUnity;\nusing System;\n\n\t/// <summary>\n\t/// VideoCapture sample.\n\t/// </summary>\n\tpublic class VideoCaptureFileNameSample : MonoBehaviour\n    {\n        //\u74b0\u5883\u3084\u5f62\u5f0f\u306b\u3088\u3063\u3066\u306f\u52d5\u753b\u306e\u60c5\u5831\u304c\u6b63\u3057\u304f\u53d6\u5f97\u3067\u304d\u306a\u3044\u3053\u3068\u304c\u3042\u308b\u306e\u3067\u3001\u76f4\u63a5\u6307\u5b9a\u3059\u308b\n        private int fps = 10;\n        private double frameWidth = 768;\n        private double frameHeight = 576;\n\n        private VideoCapture capture;\n        private Mat rgbaMat;\n        private Texture2D texture;\n\n        private bool didUpdateThisFrame = false;\n        private bool isThreadRunning = false;\n        private ThreadComm threadComm = new ThreadComm();\n\n\n\n#if UNITY_PRO_LICENSE || ((UNITY_ANDROID || UNITY_IOS) && !UNITY_EDITOR) || !(UNITY_4_5 || UNITY_4_6)\n\n        // Use this for initialization\n        void Start()\n        {\n\n            rgbaMat = new Mat();\n\n            capture = new VideoCapture();\n\n            //capture.open(Utils.getFilePath(\"768x576.avi\"));\n#if UNITY_IPHONE && !UNITY_EDITOR\n            capture.open(Utils.getFilePath(\"768x576_h264.mov\"));\n#else\n            capture.open(Utils.getFilePath(\"768x576_mjpeg.avi\"));\n#endif\n\n            if (capture.isOpened())\n            {\n                Debug.Log(\"capture.isOpened(): true\");\n            }\n            else\n            {\n                Debug.Log(\"capture.isOpened(): false\");\n                return;\n            }\n\n            //\u52d5\u753b\u30d5\u30a1\u30a4\u30eb\u306e\u60c5\u5831\u3092\u8868\u793a\n            Debug.Log(\"format: \" + capture.get(8));\n            Debug.Log(\"preview format: \" + capture.get(Videoio.CV_CAP_PROP_PREVIEW_FORMAT));\n            Debug.Log(\"CAP_PROP_POS_MSEC: \" + capture.get(Videoio.CAP_PROP_POS_MSEC));\n            Debug.Log(\"CAP_PROP_POS_FRAMES: \" + capture.get(Videoio.CAP_PROP_POS_FRAMES));\n            Debug.Log(\"CAP_PROP_POS_AVI_RATIO: \" + capture.get(Videoio.CAP_PROP_POS_AVI_RATIO));\n            Debug.Log(\"CAP_PROP_FRAME_COUNT: \" + capture.get(Videoio.CAP_PROP_FRAME_COUNT));\n            Debug.Log(\"CAP_PROP_FPS: \" + capture.get(Videoio.CAP_PROP_FPS));\n            Debug.Log(\"CAP_PROP_FRAME_WIDTH: \" + capture.get(Videoio.CAP_PROP_FRAME_WIDTH));\n            Debug.Log(\"CAP_PROP_FRAME_HEIGHT: \" + capture.get(Videoio.CAP_PROP_FRAME_HEIGHT));\n            double ex = capture.get(Videoio.CAP_PROP_FOURCC);\n            //char EXT[] = {ex & 0XFF , (ex & 0XFF00) >> 8,(ex & 0XFF0000) >> 16,(ex & 0XFF000000) >> 24, 0};\n            Debug.Log(\"CAP_PROP_FOURCC: \" + (char)((int)ex & 0XFF) + (char)(((int)ex & 0XFF00) >> 8) + (char)(((int)ex & 0XFF0000) >> 16) + (char)(((int)ex & 0XFF000000) >> 24));\n\n\n            //\u52d5\u753b\u304c\u753b\u9762\u3044\u3063\u3071\u3044\u306b\u8868\u793a\u3055\u308c\u308b\u3088\u3046\u306b\u8abf\u6574\n            texture = new Texture2D((int)(frameWidth), (int)(frameHeight), TextureFormat.RGBA32, false);\n            gameObject.GetComponent<Renderer>().material.mainTexture = texture;\n\n#if (UNITY_ANDROID || UNITY_IPHONE || UNITY_WP_8_1) && !UNITY_EDITOR\n            gameObject.transform.eulerAngles = new Vector3 (0, 0, -90);\n#endif\n\n            gameObject.transform.localScale = new Vector3((float)frameWidth, (float)frameHeight, 1);\n\n\n#if (UNITY_ANDROID || UNITY_IPHONE || UNITY_WP_8_1) && !UNITY_EDITOR\n\t\t\tCamera.main.orthographicSize = (float)frameWidth / 2;\n#else\n            Camera.main.orthographicSize = (float)frameHeight / 2;\n#endif\n\n            //\u52d5\u753b\u518d\u751f\u958b\u59cb\n            StartThread();\n\n        }\n\n        // Update is called once per frame\n        void Update()\n        {\n            if (!didUpdateThisFrame) return;\n\n            if (rgbaMat.total() > 0)\n                 Utils.matToTexture2D(rgbaMat, texture);\n\n\n            didUpdateThisFrame = false;\n        }\n\n\n        void OnDestroy()\n        {\n\n            StopThread();\n\n            capture.release();\n\n        }\n\n\n\n        private void ThreadWorker()\n        {\n            if (isThreadRunning) return;\n\n            isThreadRunning = true;\n\n            threadComm.fps = fps;\n            threadComm.frameCount = (int)capture.get(Videoio.CAP_PROP_FRAME_COUNT);\n\n            StartCoroutine(\"CaptureCoroutine\", threadComm);\n        }\n\n        \n        IEnumerator CaptureCoroutine(System.Object o)\n        {\n            ThreadComm comm = o as ThreadComm;\n\n            int msec = (int)(1000f / comm.fps);\n\n            System.Diagnostics.Stopwatch stopWatch;\n\n            while (true)\n            {\n\n                stopWatch = System.Diagnostics.Stopwatch.StartNew();\n\n                if (capture.grab())\n                {\n                    //Loop play\n                    if (capture.get(Videoio.CAP_PROP_POS_FRAMES) == comm.frameCount)\n                        capture.set(Videoio.CAP_PROP_POS_FRAMES, 0);\n\n                    capture.retrieve(rgbaMat, 0);\n                    Imgproc.cvtColor(rgbaMat, rgbaMat, Imgproc.COLOR_BGR2RGB);\n\n                    didUpdateThisFrame = true;\n                }\n                else\n                {\n                    break;\n                }\n\n                stopWatch.Stop();\n\n                //FPS\u304b\u3089\u8a08\u7b97\u3057\u305fWait\u3092\u52a0\u3048\u308b\n                if (msec > (int)stopWatch.ElapsedMilliseconds)\n                    yield return new WaitForSeconds((msec - stopWatch.ElapsedMilliseconds) / 1000f);\n            }\n        }\n\n\n        public class ThreadComm : System.Object\n        {\n            public int fps;\n            public int frameCount;\n        }\n\n\n        public void StartThread()\n        {\n            if (fps <= 0) return;\n\n            ThreadWorker();\n        }\n\n        public void StopThread()\n        {\n            if (!isThreadRunning) return;\n\n\n\n            StopCoroutine(\"CaptureCoroutine\");\n            isThreadRunning = false;\n\n        }\n\n#endif\n}\n\n```\n\n\u5f53\u305f\u308a\u524d\u3067\u3059\u304c\u3001\u300c[OpenCV for Unity](https://www.assetstore.unity3d.com/jp/#!/content/21088)\u300d\u306eAsset\u306e\u5c0e\u5165\u304c\u5fc5\u8981\u3067\u3059\u3002\n\u52d5\u753b\u30d5\u30a1\u30a4\u30eb\u306f\u300cAssets/StreamingAssets\u300d\u30d5\u30a9\u30eb\u30c0\u306b\u5165\u308c\u3066\u304f\u3060\u3055\u3044\u3002\n\n\u3068\u308a\u3042\u3048\u305a\u52d5\u753b\u304c\u518d\u751f\u3067\u304d\u308c\u3070\u826f\u3044\u3068\u3044\u3046\u65b9\u91dd\u3067\u3001\u30b3\u30eb\u30fc\u30c1\u30f3\u3067FPS\u306b\u5fdc\u3058\u305f\u30a6\u30a7\u30a4\u30c8\u3092\u52a0\u3048\u306a\u304c\u3089\u30d5\u30ec\u30fc\u30e0\u3092\u66f4\u65b0\u3057\u3066\u3044\u307e\u3059\u3002\n\u4e00\u6642\u505c\u6b62\u3084\u30b7\u30fc\u30af\u6a5f\u80fd\u306f\u307e\u3060\u3042\u308a\u307e\u305b\u3093\u3002\u3068\u308a\u3042\u3048\u305a\u30eb\u30fc\u30d7\u518d\u751f\u3055\u305b\u3066\u3044\u307e\u3059\u3002\n\n\n##\u5404\u30d7\u30e9\u30c3\u30c8\u30d5\u30a9\u30fc\u30e0\u3067\u518d\u751f\u30c6\u30b9\u30c8\u3092\u3057\u3066\u307f\u305f\u7d50\u679c\n\n\u4ee5\u4e0b\u306e3\u7a2e\u985e\u306e\u52d5\u753b\u30d5\u30a1\u30a4\u30eb\u304c\u518d\u751f\u3067\u304d\u308b\u304b\u30c6\u30b9\u30c8\u3057\u307e\u3057\u305f\u3002\n\nA. 768x576.avi (\u30b3\u30fc\u30c7\u30c3\u30af:div3 / \u30b3\u30f3\u30c6\u30ca:avi)\u203bOpenCV\u306b\u540c\u68b1\u3055\u308c\u3066\u3044\u308b\u5143\u30d5\u30a1\u30a4\u30eb\n**B. 768x576_mjpeg.avi (\u30b3\u30fc\u30c7\u30c3\u30af:mjpeg / \u30b3\u30f3\u30c6\u30ca:avi)**\nC. 768x576_h264.mov (\u30b3\u30fc\u30c7\u30c3\u30af:h264 / \u30b3\u30f3\u30c6\u30ca:mov)[^1] \n\n| \u30d7\u30e9\u30c3\u30c8\u30d5\u30a9\u30fc\u30e0 | A.768x576.avi(div3/avi) | B.768x576_mjpeg.avi(mjpeg/avi) | C.768x576_h264.mov(h264/mov) |\n|:-----------|:------------:|:------------:|:--------------:|\n| Windows      |     \u25cb \u203b1    |     \u25cb     |    \u25cb \u203b1    |\n| Mac      |     \u00d7     |     \u25cb     |    \u25cb \u203b2    |\n| Android      |     \u00d7     |     \u25cb     |    \u00d7     |\n| iPhone      |     \u00d7     |     \u25cb \u203b3    |    \u25cb     |\n| WindowsStoreApp      |     \u00d7     |     \u25cb     |    \u00d7     |\n| WebGL      |     \u00d7     |     \u25cb     |    \u00d7     |\n\n\u203b1 Windows\u7248OpenCV\u306b\u540c\u68b1\u3055\u308c\u3066\u3044\u308b\u300copencv_ffmpeg300_[64].dll\u300d\u306b\u30d1\u30b9\u304c\u901a\u3063\u3066\u3044\u308b\u5834\u5408\u306e\u307f\u518d\u751f\u53ef\u80fd\n\u203b2 \u7279\u306b\u4f55\u3082\u3057\u3066\u3044\u306a\u3044\u3051\u3069\u518d\u751f\u3067\u304d\u305f\uff08Mac\u306b\u306f\u5143\u3005QuickTime\u304c\u5165\u3063\u3066\u3044\u308b\u305f\u3081\u304b?\uff09\n~~\u203b3 iPhone\u3067\u306f\u306a\u305c\u304bMJPEG\u5f62\u5f0f\u304c\u518d\u751f\u3067\u304d\u306a\u3044\u3002(\u300cOpenCV for Unity 1.1.6\u300d\u306eReadMe\u306e\u30d0\u30fc\u30b8\u30e7\u30f3\u5c65\u6b74\u3067iPhone\u306elibjpg,libpng\u306e\u30d0\u30fc\u30b8\u30e7\u30f3\u30b3\u30f3\u30af\u30ea\u30d5\u30c8\u554f\u984c([\u3053\u306e\u8a18\u4e8b](http://qiita.com/Hare8563/items/bae7ac731535215acd54)\u3068\u540c\u3058\u554f\u984c\u307d\u3044)\u306b\u3064\u3044\u3066\u8a00\u53ca\u3055\u308c\u3066\u3044\u308b\u306e\u3067\u3001\u305d\u306e\u95a2\u4fc2\u3067jpeg\u306e\u30a8\u30f3\u30b3\u30fc\u30c9\u304c\u51fa\u6765\u306a\u3044\u306e\u3067\u306f\uff1f\u3068\u63a8\u6e2c)\u3000\u4ee3\u308f\u308a\u306biPhone\u5411\u3051\u306b\u5909\u63db\u3057\u305f\u52d5\u753b\u5f62\u5f0f\u306a\u3089\u518d\u751f\u3067\u304d\u305f\u3002~~\n\u203b3 \u30d0\u30fc\u30b8\u30e7\u30f31.2.7\u3067\u30b3\u30f3\u30af\u30ea\u30d5\u30c8\u554f\u984c\u304c\u4fee\u6b63\u3055\u308c\u305f\u305f\u3081\u3001\u518d\u751f\u53ef\u80fd\u306b\u306a\u308a\u307e\u3057\u305f\uff01\n\n\n**MJPEG\u5f62\u5f0f\u3067\u3060\u3044\u305f\u3044\u30a4\u30b1\u308b\uff01\uff01\uff08\u753b\u8cea\u304c\u52a3\u5316\u3057\u3066\u30d5\u30a1\u30a4\u30eb\u30b5\u30a4\u30ba\u304c\u5927\u304d\u3081\u3060\u3051\u3069\u2026\u2026\uff09**\n#\u307e\u3068\u3081\n\niPhone\u3060\u3051\u306f\u52d5\u753b\u5f62\u5f0f\u3092\u5909\u66f4\u3059\u308b\u5fc5\u8981\u304c\u3042\u308a\u307e\u3057\u305f\u304c\u3001**Unity\u3067OpenCV\u3092\u4f7f\u3063\u3066\u30c7\u30b9\u30af\u30c8\u30c3\u30d7\u3068\u30e2\u30d0\u30a4\u30eb\u74b0\u5883\u3067\u52d5\u753b\u3092\u518d\u751f\u3059\u308b\u3053\u3068\u306b\u6210\u529f**\u3057\u307e\u3057\u305f\u3002\n\n**[\u6b21\u56de\u306e\u8a18\u4e8b](http://qiita.com/utibenkei/items/a9c4e96a395666f9bf54)\u3067\u306f\u52d5\u753b\u518d\u751f\u3092\u5229\u7528\u3057\u3066\u3001\u30b9\u30de\u30dbVR\u30a2\u30d7\u30ea(\u30cf\u30b3\u30b9\u30b3\u7684\u306a)\u306e\u4f5c\u6210\u306b\u6311\u6226\u3057\u3066\u307f\u305f\u3044\u3068\u601d\u3044\u307e\u3059\u3002**\n\n\n# \u95a2\u9023\u8a18\u4e8b\n[Unity\u3067OpenCV\u3092\u5229\u7528\u3057\u305f\u9854\u691c\u51fa\u30fb\u753b\u50cf\u51e6\u7406\u30a2\u30d7\u30ea\u4e8b\u59cb\u3081](http://qiita.com/utibenkei/items/fb93623a7ccaabb342f2)\n[Unity\u3067OpenCV\u3092\u5229\u7528\u3057\u305f\u9854\u691c\u51fa\u30fb\u753b\u50cf\u51e6\u7406\u30a2\u30d7\u30ea\u4e8b\u59cb\u30812 \u30b5\u30f3\u30d7\u30eb\u30b3\u30fc\u30c9\u8a73\u89e3](http://qiita.com/utibenkei/items/290e83d2c50cdadbcb2d)\n[\u300cOpenCV for Unity\u300dAsset\u306e\u30a4\u30f3\u30dd\u30fc\u30c8\u30b5\u30a4\u30ba\u3092\u524a\u6e1b\u3059\u308b\u65b9\u6cd5](http://qiita.com/utibenkei/items/eee141cd2f1656b19cc2)\nUnity\u3067OpneCV\u3092\u5229\u7528\u3057\u305f\u52d5\u753b\u518d\u751f\u3092\u3057\u3066\u307f\u305f\n[Unity\u3067OpneCV\u3092\u5229\u7528\u3057\u305f\u30cf\u30b3\u30b9\u30b3VR\u4f53\u9a13](http://qiita.com/utibenkei/items/a9c4e96a395666f9bf54)\n\n\n\n[^1]: ffmpeg\u3092\u4f7f\u7528\u3057\u3066\u300cffmpeg -i 768x576.avi -r 10 -s 768x576 -vcodec h264 -an 768x576_h264.mov\u300d\u3067\u5909\u63db\u3057\u305f\u3082\u306e(iPhone\u3067\u518d\u751f\u53ef\u80fd\u306a\u52d5\u753b\u5f62\u5f0f)\n", "tags": ["Unity", "OpenCV", "\u753b\u50cf\u51e6\u7406", "\u52d5\u753b\u518d\u751f"]}